<?xml version="1.0" encoding="UTF-8" standalone="no"?>
<!DOCTYPE svg PUBLIC "-//W3C//DTD SVG 1.1//EN" "http://www.w3.org/Graphics/SVG/1.1/DTD/svg11.dtd">
<!-- Created with Vectornator (http://vectornator.io/) -->
<svg height="100%" stroke-miterlimit="10" style="fill-rule:nonzero;clip-rule:evenodd;stroke-linecap:round;stroke-linejoin:round;" version="1.1" viewBox="0 0 1034.16 225.349" width="100%" xml:space="preserve" xmlns="http://www.w3.org/2000/svg" xmlns:vectornator="http://vectornator.io" xmlns:xlink="http://www.w3.org/1999/xlink">
<defs>
<clipPath id="TextBounds">
<rect height="165.797" width="1271.45" x="-506.504" y="48.0919"/>
</clipPath>
<clipPath id="TextBounds_2">
<rect height="181" width="109.61" x="903.329" y="17.3698"/>
</clipPath>
</defs>
<g id="Layer-1" vectornator:layerName="Layer 1">
<g fill="#ff0000" opacity="1" stroke="none">
<path clip-path="url(#TextBounds)" d="M75.795 113.174L90.6778 113.233C92.3575 113.233 93.9493 112.998 95.4532 112.529C96.9571 112.061 98.2657 111.348 99.3789 110.391C100.492 109.434 101.381 108.252 102.045 106.846C102.709 105.44 103.041 103.799 103.041 101.924C103.041 99.5411 102.572 97.5685 101.635 96.006C100.697 94.4435 99.4864 93.213 98.002 92.3146C96.5176 91.4161 94.8575 90.7911 93.0215 90.4396C91.1856 90.088 89.3496 89.9122 87.5137 89.9122C85.1309 89.9122 83.0508 90.1564 81.2735 90.6446C79.4961 91.1329 77.9727 91.7677 76.7032 92.5489C75.4336 93.3302 74.3789 94.1993 73.5391 95.1564C72.6993 96.1134 72.045 97.0704 71.5762 98.0275C71.1075 98.9845 70.7754 99.8829 70.5801 100.723C70.3848 101.563 70.2871 102.236 70.2871 102.744L53.7051 102.744C53.7051 101.533 53.8516 100.029 54.1446 98.2325C54.4375 96.4357 55.0137 94.5411 55.8731 92.5489C56.7325 90.5568 57.9532 88.5646 59.5352 86.5724C61.1172 84.5802 63.2168 82.7833 65.834 81.1818C68.4512 79.5802 71.6446 78.2814 75.4141 77.2853C79.1836 76.2892 83.6856 75.7911 88.92 75.7911C94.4278 75.7911 99.1641 76.5236 103.129 77.9884C107.094 79.4532 110.346 81.3282 112.885 83.6134C115.424 85.8986 117.299 88.4474 118.51 91.2599C119.721 94.0724 120.326 96.8263 120.326 99.5216C120.326 101.045 120.141 102.647 119.77 104.326C119.398 106.006 118.715 107.647 117.719 109.248C116.723 110.85 115.375 112.334 113.676 113.701C111.977 115.068 109.779 116.182 107.084 117.041L107.084 117.276C107.943 117.51 108.939 117.803 110.072 118.154C111.205 118.506 112.367 119.004 113.559 119.649C114.75 120.293 115.922 121.123 117.074 122.139C118.227 123.154 119.252 124.424 120.15 125.947C121.049 127.471 121.781 129.297 122.348 131.426C122.914 133.555 123.197 136.045 123.197 138.897C123.197 142.647 122.397 146.182 120.795 149.502C119.193 152.822 116.859 155.723 113.793 158.203C110.727 160.684 106.938 162.647 102.426 164.092C97.9141 165.537 92.7481 166.26 86.9278 166.26C83.959 166.26 81.0098 166.094 78.0801 165.762C75.1504 165.43 72.3672 164.854 69.7305 164.033C67.0938 163.213 64.6426 162.129 62.377 160.781C60.1114 159.434 58.1485 157.754 56.4883 155.742C54.8282 153.731 53.5293 151.348 52.5918 148.594C51.6543 145.84 51.1856 142.647 51.1856 139.014L67.7676 139.014C67.7676 140.459 68.1094 141.953 68.793 143.496C69.4766 145.039 70.5801 146.445 72.1035 147.715C73.627 148.984 75.6192 150.029 78.0801 150.85C80.541 151.67 83.5293 152.08 87.045 152.08C90.3262 152.08 93.1192 151.699 95.4239 150.938C97.7285 150.176 99.6035 149.16 101.049 147.891C102.494 146.621 103.549 145.176 104.213 143.555C104.877 141.934 105.209 140.264 105.209 138.545C105.209 135.85 104.75 133.692 103.832 132.07C102.914 130.449 101.752 129.209 100.346 128.35C98.9395 127.49 97.416 126.934 95.7754 126.68C94.1348 126.426 92.5918 126.299 91.1465 126.299L75.795 126.299L75.795 113.174Z"/>
<path clip-path="url(#TextBounds)" d="M172.65 164.092L136.85 164.092L136.85 100.225L169.897 100.225C172.826 100.225 175.648 100.479 178.363 100.986C181.078 101.494 183.471 102.383 185.541 103.652C187.611 104.922 189.262 106.641 190.492 108.809C191.723 110.977 192.338 113.721 192.338 117.041C192.338 118.955 192.133 120.615 191.723 122.022C191.313 123.428 190.756 124.629 190.053 125.625C189.35 126.621 188.539 127.461 187.621 128.145C186.703 128.828 185.756 129.404 184.779 129.873C187.982 131.006 190.424 132.813 192.104 135.293C193.783 137.774 194.623 140.733 194.623 144.17C194.623 147.178 194.106 149.902 193.07 152.344C192.035 154.785 190.57 156.875 188.676 158.613C186.781 160.352 184.477 161.699 181.762 162.656C179.047 163.613 176.01 164.092 172.65 164.092ZM171.361 136.729C169.916 136.494 168.197 136.377 166.205 136.377L153.432 136.377L153.432 152.315L166.205 152.315C168.588 152.315 170.512 152.061 171.977 151.553C173.441 151.045 174.574 150.401 175.375 149.619C176.176 148.838 176.703 147.979 176.957 147.041C177.211 146.104 177.338 145.225 177.338 144.404C177.338 142.842 177.133 141.543 176.723 140.508C176.313 139.473 175.668 138.643 174.789 138.018C173.91 137.393 172.768 136.963 171.361 136.729ZM173.881 123.545C174.584 122.998 175.082 122.305 175.375 121.465C175.668 120.625 175.814 119.639 175.814 118.506C175.814 117.568 175.668 116.699 175.375 115.899C175.082 115.098 174.584 114.414 173.881 113.848C173.178 113.281 172.24 112.832 171.068 112.5C169.897 112.168 168.432 112.002 166.674 112.002L153.432 112.002L153.432 125.303L166.205 125.303C168.08 125.303 169.643 125.156 170.893 124.863C172.143 124.57 173.139 124.131 173.881 123.545Z"/>
<path clip-path="url(#TextBounds)" d="M221.928 164.151C218.178 162.861 214.906 160.84 212.113 158.086C209.32 155.332 207.123 151.768 205.522 147.393C203.92 143.018 203.119 137.705 203.119 131.455C203.119 127.119 203.695 122.949 204.848 118.945C206 114.942 207.797 111.416 210.238 108.369C212.68 105.322 215.805 102.891 219.613 101.074C223.422 99.2579 228.002 98.3497 233.354 98.3497C239.018 98.3497 243.783 99.2775 247.65 101.133C251.518 102.988 254.633 105.615 256.996 109.014C259.359 112.412 261.049 116.514 262.064 121.318C263.08 126.123 263.588 131.455 263.588 137.315L219.818 137.315C219.818 137.901 219.877 138.682 219.994 139.658C220.111 140.635 220.346 141.69 220.697 142.822C221.049 143.955 221.557 145.098 222.221 146.25C222.885 147.402 223.773 148.447 224.887 149.385C226 150.322 227.367 151.084 228.988 151.67C230.609 152.256 232.553 152.549 234.818 152.549C235.99 152.549 237.152 152.383 238.305 152.051C239.457 151.719 240.522 151.231 241.498 150.586C242.475 149.942 243.324 149.16 244.047 148.242C244.77 147.324 245.287 146.279 245.6 145.108L262.768 145.108C262.768 146.279 262.514 147.617 262.006 149.121C261.498 150.625 260.727 152.149 259.691 153.692C258.656 155.234 257.357 156.748 255.795 158.233C254.232 159.717 252.377 161.035 250.229 162.188C248.08 163.34 245.648 164.268 242.934 164.971C240.219 165.674 237.201 166.026 233.881 166.026C229.623 166.026 225.639 165.401 221.928 164.151ZM224.857 114.756C223.568 115.889 222.504 117.393 221.664 119.268C220.824 121.143 220.404 123.486 220.404 126.299L246.361 126.299C246.361 123.486 245.941 121.143 245.102 119.268C244.262 117.393 243.207 115.899 241.938 114.785C240.668 113.672 239.272 112.891 237.748 112.442C236.225 111.992 234.76 111.768 233.354 111.768C231.986 111.768 230.541 111.992 229.018 112.442C227.494 112.891 226.107 113.662 224.857 114.756Z"/>
<path clip-path="url(#TextBounds)" d="M315.619 136.729L291.244 136.729L291.244 164.092L274.662 164.092L274.662 100.225L291.244 100.225L291.244 123.311L315.619 123.311L315.619 100.225L332.143 100.225L332.143 164.092L315.619 164.092L315.619 136.729Z"/>
<path clip-path="url(#TextBounds)" d="M388.92 164.092L388.92 125.596L388.627 125.596L366.068 164.092L347.963 164.092L347.963 100.225L364.545 100.225L364.545 139.6L364.779 139.6L388.041 100.225L405.443 100.225L405.443 164.092L388.92 164.092Z"/>
<path clip-path="url(#TextBounds)" d="M421.264 100.225L464.213 100.225L464.213 113.701L437.846 113.701L437.846 164.092L421.264 164.092L421.264 100.225Z"/>
<path clip-path="url(#TextBounds)" d="M489.76 163.506C485.736 161.826 482.309 159.483 479.477 156.475C476.645 153.467 474.477 149.893 472.973 145.752C471.469 141.611 470.717 137.08 470.717 132.158C470.717 127.236 471.469 122.705 472.973 118.565C474.477 114.424 476.645 110.859 479.477 107.871C482.309 104.883 485.736 102.549 489.76 100.869C493.783 99.1896 498.314 98.3497 503.354 98.3497C508.471 98.3497 513.051 99.1896 517.094 100.869C521.137 102.549 524.555 104.883 527.348 107.871C530.141 110.859 532.279 114.424 533.764 118.565C535.248 122.705 535.99 127.236 535.99 132.158C535.99 137.08 535.248 141.611 533.764 145.752C532.279 149.893 530.141 153.467 527.348 156.475C524.555 159.483 521.137 161.826 517.094 163.506C513.051 165.186 508.471 166.026 503.354 166.026C498.314 166.026 493.783 165.186 489.76 163.506ZM488.822 139.307C489.33 141.69 490.189 143.809 491.4 145.664C492.611 147.52 494.193 149.014 496.147 150.147C498.1 151.279 500.502 151.846 503.354 151.846C506.322 151.846 508.793 151.289 510.766 150.176C512.738 149.063 514.311 147.598 515.482 145.781C516.654 143.965 517.484 141.875 517.973 139.512C518.461 137.149 518.705 134.697 518.705 132.158C518.705 129.658 518.461 127.217 517.973 124.834C517.484 122.451 516.654 120.352 515.482 118.535C514.311 116.719 512.738 115.254 510.766 114.141C508.793 113.027 506.322 112.471 503.354 112.471C500.502 112.471 498.1 113.037 496.147 114.17C494.193 115.303 492.611 116.797 491.4 118.652C490.189 120.508 489.32 122.617 488.793 124.981C488.266 127.344 488.002 129.736 488.002 132.158C488.002 134.58 488.275 136.963 488.822 139.307Z"/>
<path clip-path="url(#TextBounds)" d="M571.264 100.986C572.787 100.088 574.477 99.4239 576.332 98.9943C578.188 98.5646 580.287 98.3497 582.631 98.3497C584.584 98.3497 586.596 98.5841 588.666 99.0529C590.736 99.5216 592.758 100.274 594.731 101.309C596.703 102.344 598.568 103.692 600.326 105.352C602.084 107.012 603.627 109.053 604.955 111.475C606.283 113.897 607.338 116.719 608.119 119.942C608.9 123.164 609.291 126.846 609.291 130.986C609.291 136.143 608.734 140.869 607.621 145.166C606.508 149.463 604.828 153.154 602.582 156.24C600.336 159.326 597.504 161.729 594.086 163.447C590.668 165.166 586.654 166.026 582.045 166.026C580.443 166.026 578.822 165.869 577.182 165.557C575.541 165.244 573.939 164.717 572.377 163.975C570.814 163.233 569.34 162.227 567.953 160.957C566.566 159.688 565.346 158.096 564.291 156.182L564.057 156.182L564.057 188.818L547.475 188.818L547.475 100.225L563.295 100.225L563.295 109.365L563.529 109.365C564.662 107.451 565.854 105.801 567.104 104.414C568.354 103.027 569.74 101.885 571.264 100.986ZM568.627 148.33C569.682 149.385 570.951 150.234 572.436 150.879C573.92 151.524 575.678 151.846 577.709 151.846C579.74 151.846 581.498 151.524 582.982 150.879C584.467 150.234 585.736 149.385 586.791 148.33C587.846 147.276 588.715 146.065 589.398 144.697C590.082 143.33 590.619 141.914 591.01 140.449C591.4 138.984 591.664 137.539 591.801 136.113C591.938 134.688 592.006 133.369 592.006 132.158C592.006 129.932 591.752 127.686 591.244 125.42C590.736 123.154 589.926 121.123 588.813 119.326C587.699 117.529 586.225 116.065 584.389 114.932C582.553 113.799 580.326 113.233 577.709 113.233C575.053 113.233 572.816 113.799 571 114.932C569.184 116.065 567.719 117.529 566.606 119.326C565.492 121.123 564.682 123.154 564.174 125.42C563.666 127.686 563.412 129.932 563.412 132.158C563.412 133.369 563.481 134.688 563.617 136.113C563.754 137.539 564.018 138.984 564.408 140.449C564.799 141.914 565.336 143.33 566.02 144.697C566.703 146.065 567.572 147.276 568.627 148.33Z"/>
<path clip-path="url(#TextBounds)" d="M636.479 163.506C632.455 161.826 629.027 159.483 626.195 156.475C623.363 153.467 621.195 149.893 619.691 145.752C618.188 141.611 617.436 137.08 617.436 132.158C617.436 127.236 618.188 122.705 619.691 118.565C621.195 114.424 623.363 110.859 626.195 107.871C629.027 104.883 632.455 102.549 636.479 100.869C640.502 99.1896 645.033 98.3497 650.072 98.3497C655.189 98.3497 659.77 99.1896 663.813 100.869C667.856 102.549 671.273 104.883 674.066 107.871C676.859 110.859 678.998 114.424 680.482 118.565C681.967 122.705 682.709 127.236 682.709 132.158C682.709 137.08 681.967 141.611 680.482 145.752C678.998 149.893 676.859 153.467 674.066 156.475C671.273 159.483 667.856 161.826 663.813 163.506C659.77 165.186 655.189 166.026 650.072 166.026C645.033 166.026 640.502 165.186 636.479 163.506ZM635.541 139.307C636.049 141.69 636.908 143.809 638.119 145.664C639.33 147.52 640.912 149.014 642.865 150.147C644.818 151.279 647.221 151.846 650.072 151.846C653.041 151.846 655.512 151.289 657.484 150.176C659.457 149.063 661.029 147.598 662.201 145.781C663.373 143.965 664.203 141.875 664.691 139.512C665.18 137.149 665.424 134.697 665.424 132.158C665.424 129.658 665.18 127.217 664.691 124.834C664.203 122.451 663.373 120.352 662.201 118.535C661.029 116.719 659.457 115.254 657.484 114.141C655.512 113.027 653.041 112.471 650.072 112.471C647.221 112.471 644.818 113.037 642.865 114.17C640.912 115.303 639.33 116.797 638.119 118.652C636.908 120.508 636.039 122.617 635.512 124.981C634.984 127.344 634.721 129.736 634.721 132.158C634.721 134.58 634.994 136.963 635.541 139.307Z"/>
<path clip-path="url(#TextBounds)" d="M746.635 164.092L704.74 164.092L704.74 179.443L689.154 179.443L689.154 150.674L695.775 150.674C697.338 147.744 698.637 144.668 699.672 141.445C700.707 138.223 701.537 134.971 702.162 131.69C702.787 128.408 703.236 125.195 703.51 122.051C703.783 118.906 703.979 115.947 704.096 113.174C704.213 110.401 704.262 107.901 704.242 105.674C704.223 103.447 704.232 101.631 704.272 100.225L754.193 100.225L754.193 150.674L762.221 150.674L762.221 179.443L746.635 179.443L746.635 164.092ZM714.994 144.346C714.291 146.611 713.432 148.721 712.416 150.674L737.67 150.674L737.67 113.701L718.686 113.701C718.686 114.873 718.676 116.318 718.656 118.037C718.637 119.756 718.559 121.66 718.422 123.75C718.285 125.84 718.09 128.057 717.836 130.401C717.582 132.744 717.211 135.088 716.723 137.432C716.234 139.776 715.658 142.08 714.994 144.346Z"/>
</g>
<g opacity="1">
<path d="M832.778 161.368C833.916 161.422 834.674 164.185 834.674 164.185C836.408 164.24 838.087 164.24 839.766 164.185C839.766 164.185 840.525 161.422 841.663 161.368C842.8 161.314 843.884 163.914 843.884 163.914C845.509 163.752 847.134 163.589 848.759 163.319C848.759 163.319 849.139 160.447 850.276 160.231C851.414 160.014 852.823 162.506 852.823 162.506C854.394 162.181 855.911 161.747 857.427 161.314C857.427 161.314 857.482 158.443 858.565 158.118C859.649 157.793 861.382 160.068 861.382 160.068C862.845 159.526 864.308 158.985 865.716 158.334C865.716 158.334 865.391 155.463 866.42 154.976C867.45 154.488 869.454 156.547 869.454 156.547C870.809 155.842 872.163 155.138 873.517 154.326C873.517 154.326 872.867 151.508 873.842 150.913C874.817 150.317 877.039 152.104 877.039 152.104C878.339 151.238 879.585 150.371 880.777 149.45C880.777 149.45 879.802 146.741 880.668 146.037C881.535 145.333 883.973 146.849 883.973 146.849C885.165 145.874 886.248 144.845 887.386 143.761C887.386 143.761 886.086 141.215 886.898 140.403C887.711 139.59 890.257 140.836 890.257 140.836C891.287 139.698 892.316 138.561 893.291 137.369C893.291 137.369 891.666 134.985 892.37 134.064C893.074 133.143 895.783 134.064 895.783 134.064C896.704 132.818 897.571 131.518 898.383 130.218C898.383 130.218 896.487 128.051 897.083 127.076C897.679 126.101 900.496 126.696 900.496 126.696C901.255 125.288 901.959 123.934 902.663 122.471C902.663 122.471 900.55 120.521 900.984 119.491C901.417 118.462 904.289 118.679 904.289 118.679C904.884 117.162 905.426 115.645 905.914 114.128C905.914 114.128 903.584 112.503 903.909 111.419C904.234 110.336 907.106 110.227 907.106 110.227C907.539 108.602 907.918 106.977 908.189 105.297C908.189 105.297 905.643 103.943 905.805 102.86C905.968 101.722 908.785 101.234 908.785 101.234C908.893 100.368 909.002 99.5008 909.11 98.634C909.164 97.7672 909.218 96.9004 909.273 96.0336C909.273 96.0336 906.564 95.0043 906.618 93.9208C906.672 92.7831 909.381 91.9705 909.381 91.9705C909.381 90.2911 909.327 88.6117 909.218 86.9322C909.218 86.9322 906.401 86.2821 906.293 85.1445C906.185 84.0068 908.785 82.815 908.785 82.815C908.568 81.1897 908.297 79.6187 908.027 77.9934C908.027 77.9934 905.155 77.6684 904.939 76.5849C904.668 75.5014 907.16 73.9845 907.16 73.9845C906.781 72.4676 906.347 70.9507 905.805 69.4338C905.805 69.4338 902.934 69.488 902.555 68.4045C902.176 67.321 904.397 65.5332 904.397 65.5332C903.801 64.0705 903.205 62.662 902.555 61.2534C902.555 61.2534 899.738 61.6327 899.196 60.6575C898.709 59.6282 900.713 57.5696 900.713 57.5696C899.955 56.2152 899.196 54.915 898.383 53.5606C898.383 53.5606 895.621 54.3191 894.97 53.3439C894.32 52.423 896.108 50.1476 896.108 50.1476C895.241 48.9016 894.32 47.6556 893.345 46.4637C893.345 46.4637 890.691 47.5472 889.932 46.6804C889.174 45.8136 890.691 43.3216 890.691 43.3216C889.661 42.1839 888.578 41.1005 887.494 40.017C887.494 40.017 884.948 41.3713 884.136 40.6129C883.323 39.8544 884.461 37.1999 884.461 37.1999C883.323 36.1706 882.131 35.1954 880.885 34.2744C880.885 34.2744 878.556 35.9539 877.635 35.3038C876.714 34.6537 877.526 31.8908 877.526 31.8908C876.226 31.024 874.926 30.2113 873.571 29.3987C873.571 29.3987 871.459 31.349 870.484 30.8073C869.508 30.2655 869.996 27.4484 869.996 27.4484C868.587 26.7442 867.125 26.0399 865.662 25.444C865.662 25.444 863.82 27.611 862.737 27.2317C861.707 26.7983 861.816 23.9271 861.816 23.9271C860.299 23.3853 858.728 22.8978 857.157 22.4102C857.157 22.4102 855.585 24.7939 854.502 24.523C853.418 24.2521 853.202 21.3809 853.202 21.3809C851.577 21.0016 849.897 20.6766 848.218 20.4057C848.218 20.4057 846.972 23.0061 845.834 22.8436C844.696 22.6811 844.155 19.864 844.155 19.864C844.046 19.864 843.992 19.864 843.884 19.8098C843.45 19.7556 842.963 19.7556 842.529 19.7014C841.338 19.5931 840.146 19.5931 839.008 19.5389C839.008 19.5389 838.087 22.2477 836.949 22.2477C835.812 22.2477 834.891 19.5389 834.891 19.5389C833.211 19.5931 831.532 19.7014 829.907 19.864C829.907 19.864 829.311 22.6811 828.227 22.8436C827.09 23.0061 825.844 20.4057 825.844 20.4057C825.519 20.4599 825.139 20.5141 824.814 20.5682C824.76 20.5682 824.706 20.5682 824.652 20.6224C823.46 20.8391 822.322 21.0558 821.13 21.3267C821.13 21.3267 820.914 24.1979 819.83 24.4688C818.747 24.7397 817.176 22.356 817.176 22.356C815.659 22.7894 814.142 23.277 812.679 23.8187C812.679 23.8187 812.842 26.69 811.758 27.1234C810.729 27.5568 808.833 25.3356 808.833 25.3356C808.453 25.4981 808.02 25.6607 807.641 25.8774C806.612 26.3649 805.636 26.8525 804.607 27.3401C804.607 27.3401 805.095 30.1572 804.065 30.6989C803.09 31.2407 800.977 29.2904 800.977 29.2904C799.623 30.0488 798.323 30.8614 797.077 31.7282C797.077 31.7282 797.889 34.4911 796.968 35.1412C796.047 35.7913 793.718 34.1119 793.718 34.1119C792.472 35.0329 791.334 36.008 790.142 36.9832C790.142 36.9832 791.28 39.6377 790.467 40.3962C789.655 41.1546 787.109 39.7461 787.109 39.7461C786.025 40.8296 784.942 41.9131 783.912 43.0507C783.912 43.0507 785.375 45.5428 784.617 46.4096C783.858 47.2764 781.204 46.1929 781.204 46.1929C780.228 47.3847 779.307 48.6307 778.387 49.8768C778.387 49.8768 780.12 52.1521 779.47 53.0731C778.82 53.994 776.057 53.2898 776.057 53.2898C775.244 54.5899 774.432 55.9443 773.673 57.3529C773.673 57.3529 775.678 59.4115 775.19 60.4408C774.703 61.4701 771.831 61.0367 771.831 61.0367C771.127 62.4995 770.531 63.9622 769.935 65.4249C769.935 65.4249 772.156 67.2127 771.777 68.2961C771.398 69.3796 768.527 69.3255 768.527 69.3255C768.039 70.8965 767.552 72.4676 767.118 74.0928C767.118 74.0928 769.556 75.6097 769.339 76.6932C769.068 77.7767 766.251 78.1018 766.251 78.1018C765.926 79.7812 765.655 81.4606 765.493 83.1942C765.493 83.1942 768.093 84.386 767.985 85.4695C767.877 86.6072 765.114 87.2573 765.114 87.2573C765.005 88.9909 764.951 90.7245 764.951 92.4039C764.951 92.4039 767.714 93.2165 767.768 94.3542C767.822 95.4918 765.114 96.5212 765.114 96.5212C765.222 98.2006 765.385 99.8258 765.601 101.451C765.601 101.451 768.418 101.939 768.581 103.076C768.743 104.214 766.251 105.514 766.251 105.514C766.576 107.085 766.901 108.656 767.281 110.173C767.281 110.173 770.152 110.282 770.477 111.365C770.802 112.449 768.418 114.128 768.418 114.128C768.906 115.645 769.448 117.108 770.044 118.516C770.044 118.516 772.915 118.299 773.348 119.329C773.782 120.358 771.669 122.308 771.669 122.308C772.319 123.717 773.023 125.125 773.728 126.426C773.728 126.426 776.545 125.83 777.141 126.805C777.736 127.78 775.84 129.947 775.84 129.947C776.653 131.247 777.52 132.493 778.387 133.793C778.387 133.793 781.095 132.872 781.8 133.793C782.504 134.714 780.879 137.098 780.879 137.098C781.854 138.29 782.829 139.482 783.858 140.619C783.858 140.619 786.459 139.373 787.271 140.186C788.03 140.999 786.729 143.545 786.729 143.545C787.813 144.628 788.951 145.658 790.142 146.633C790.142 146.633 792.58 145.116 793.447 145.82C794.314 146.524 793.339 149.233 793.339 149.233C794.206 149.937 795.127 150.587 796.047 151.238C796.318 151.454 796.643 151.671 796.914 151.834C796.968 151.888 797.023 151.888 797.077 151.942C797.077 151.942 799.298 150.1 800.273 150.75C801.248 151.346 800.544 154.163 800.544 154.163C801.898 154.976 803.253 155.68 804.661 156.438C804.661 156.438 806.666 154.38 807.695 154.867C808.724 155.355 808.399 158.172 808.399 158.172C809.483 158.66 810.62 159.093 811.758 159.526L811.758 159.526C812.137 159.689 812.517 159.797 812.896 159.96C812.896 159.96 814.629 157.63 815.713 158.009C816.796 158.334 816.851 161.206 816.851 161.206C818.422 161.693 820.047 162.073 821.672 162.452C821.672 162.452 823.081 159.96 824.218 160.176C825.356 160.393 825.735 163.21 825.735 163.21C826.873 163.373 828.065 163.589 829.257 163.698C829.69 163.752 830.178 163.806 830.611 163.86C830.719 163.86 830.773 163.86 830.882 163.86C830.557 163.969 831.64 161.26 832.778 161.368ZM841.879 39.096C870.971 36.3873 897.95 68.567 889.77 96.792C892.478 67.7002 871.079 41.8589 841.879 39.096ZM789.276 82.4899C789.438 81.6773 789.601 80.8647 789.817 80.1062C791.009 75.3389 792.851 70.8965 795.289 66.8876C795.668 66.2375 796.102 65.5332 796.535 64.8831C796.968 64.233 797.402 63.583 797.889 62.987C798.106 62.662 798.377 62.3369 798.594 62.0661C799.081 61.4701 799.569 60.82 800.056 60.2783C802.332 57.6237 804.932 55.2401 807.695 53.1272C808.291 52.6397 808.941 52.2063 809.591 51.7729C810.566 51.1228 811.541 50.4727 812.571 49.9309C813.6 49.335 814.629 48.7933 815.659 48.3057C816.688 47.8181 817.772 47.3305 818.909 46.8971C819.288 46.7346 819.668 46.6263 819.993 46.4638C823.297 45.2177 826.765 44.3509 830.394 43.8634C831.965 43.6467 833.591 43.4841 835.27 43.43C837.329 43.3758 839.387 43.43 841.5 43.5925C843.613 43.8092 845.617 44.1342 847.622 44.5676C849.139 44.8927 850.601 45.3261 852.064 45.7595C852.227 45.8137 852.443 45.8678 852.606 45.922C855.965 47.0597 859.107 48.5224 862.032 50.3102C862.466 50.581 862.953 50.8519 863.387 51.1769C864.253 51.7187 865.12 52.3146 865.933 52.9647C866.854 53.669 867.775 54.3733 868.696 55.1859C869.725 56.0527 870.7 56.9736 871.621 57.9488C872.055 58.3822 872.434 58.8156 872.867 59.249C873.409 59.8449 873.897 60.3866 874.384 60.9826C874.872 61.5785 875.359 62.1744 875.847 62.8245C876.063 63.1496 876.334 63.4746 876.551 63.7455C876.984 64.3956 877.418 65.0457 877.851 65.6958C878.285 66.3459 878.664 66.996 879.097 67.7002C879.531 68.4045 879.856 69.0546 880.235 69.7589C880.397 70.0839 880.614 70.4631 880.777 70.7882C881.102 71.4925 881.427 72.1967 881.752 72.901C882.077 73.6053 882.348 74.3637 882.619 75.068C884.244 79.5103 885.273 84.2235 885.544 89.0992C885.598 89.9119 885.598 90.7245 885.652 91.5371C885.652 93.1623 885.598 94.8417 885.436 96.5212C885.273 98.2006 885.056 99.8258 884.731 101.451C884.569 102.264 884.406 103.076 884.19 103.835C883.81 105.406 883.323 106.977 882.781 108.494C882.51 109.252 882.239 110.011 881.914 110.715C881.481 111.798 880.939 112.882 880.397 113.965C879.531 115.753 878.501 117.433 877.418 119.058C876.984 119.708 876.551 120.358 876.063 120.954C875.847 121.279 875.576 121.604 875.359 121.875C874.384 123.121 873.355 124.313 872.325 125.396C871.513 126.263 870.7 127.076 869.833 127.834C868.696 128.863 867.504 129.893 866.258 130.814C865.933 131.03 865.608 131.301 865.337 131.518C863.766 132.656 862.086 133.685 860.407 134.606C858.348 135.744 856.236 136.719 854.014 137.531C853.635 137.694 853.256 137.802 852.877 137.911C848.38 139.428 843.667 140.348 838.737 140.511C836.678 140.565 834.62 140.511 832.507 140.348C826.223 139.753 820.372 138.019 815.063 135.31C814.359 134.931 813.654 134.606 812.95 134.173C812.625 133.956 812.246 133.793 811.921 133.577C810.891 132.981 809.916 132.331 808.941 131.626C807.966 130.922 807.045 130.218 806.124 129.514C805.203 128.755 804.336 127.997 803.469 127.184C802.928 126.642 802.332 126.101 801.79 125.559C801.248 125.017 800.706 124.421 800.219 123.825C799.46 122.958 798.702 122.037 797.998 121.116C797.293 120.196 796.643 119.22 795.993 118.245C795.777 117.92 795.56 117.595 795.397 117.27C794.801 116.295 794.206 115.266 793.664 114.236C793.501 113.911 793.285 113.532 793.122 113.207C792.797 112.503 792.472 111.798 792.147 111.094C791.388 109.306 790.684 107.41 790.142 105.514C789.817 104.376 789.547 103.239 789.276 102.047C789.113 101.289 788.951 100.476 788.842 99.6633C788.571 98.0922 788.409 96.467 788.3 94.8417C788.246 94.0291 788.246 93.2165 788.192 92.4039C788.192 90.7786 788.246 89.0992 788.409 87.4198C788.734 85.7404 788.951 84.1152 789.276 82.4899ZM774.648 86.1196C775.84 121.116 796.589 146.254 831.153 154.271C796.752 151.075 771.452 120.521 774.648 86.1196Z" fill="#000000" fill-rule="nonzero" opacity="1" stroke="none"/>
<g opacity="1">
<path d="M837.004 45.2719C811.271 45.2719 790.359 66.1833 790.359 91.9163C790.359 117.649 811.271 138.561 837.004 138.561C862.737 138.561 883.648 117.649 883.648 91.9163C883.648 66.1833 862.737 45.2719 837.004 45.2719ZM881.481 98.7965C881.048 101.776 880.289 104.647 879.26 107.41C878.989 108.115 878.718 108.765 878.447 109.469C877.851 110.823 877.255 112.123 876.551 113.424C876.226 114.074 875.847 114.67 875.468 115.32C873.951 117.812 872.217 120.087 870.267 122.254C868.317 124.367 866.204 126.317 863.874 128.051C862.737 128.918 861.545 129.73 860.299 130.489C859.703 130.868 859.053 131.247 858.403 131.572C857.102 132.276 855.802 132.872 854.448 133.468C849.084 135.744 843.179 136.99 836.949 136.99C830.719 136.99 824.814 135.744 819.451 133.468C818.097 132.872 816.796 132.276 815.496 131.572C814.846 131.247 814.25 130.868 813.6 130.489C812.354 129.73 811.162 128.918 810.025 128.051C807.695 126.317 805.582 124.367 803.632 122.254C801.682 120.141 799.948 117.812 798.431 115.32C798.052 114.724 797.673 114.074 797.348 113.424C796.643 112.123 796.047 110.823 795.452 109.469C795.181 108.819 794.91 108.115 794.639 107.41C793.61 104.647 792.905 101.776 792.418 98.7965C792.093 96.5753 791.876 94.3 791.876 91.9705C791.876 67.1585 812.083 46.9513 836.895 46.9513C861.707 46.9513 881.914 67.1585 881.914 91.9705C881.969 94.2458 881.806 96.5212 881.481 98.7965Z" fill="#000000" fill-rule="nonzero" opacity="1" stroke="none"/>
<path d="M837.004 41.3172C809.104 41.3172 786.404 64.0164 786.404 91.9163C786.404 119.816 809.104 142.515 837.004 142.515C864.904 142.515 887.603 119.816 887.603 91.9163C887.603 64.0164 864.904 41.3172 837.004 41.3172ZM837.004 141.486C809.7 141.486 787.488 119.275 787.488 91.9705C787.488 64.6664 809.7 42.4548 837.004 42.4548C864.308 42.4548 886.519 64.6664 886.519 91.9705C886.519 119.275 864.308 141.486 837.004 141.486Z" fill="#000000" fill-rule="nonzero" opacity="1" stroke="none"/>
<path d="M857.319 91.9163C857.319 80.7022 848.218 71.6008 837.004 71.6008C825.789 71.6008 816.688 80.7022 816.688 91.9163C816.688 103.13 825.789 112.232 837.004 112.232C848.164 112.232 857.319 103.13 857.319 91.9163ZM816.905 91.9163C816.905 80.8647 825.898 71.8717 836.949 71.8717C848.001 71.8717 856.994 80.8647 856.994 91.9163C856.994 102.968 848.001 111.961 836.949 111.961C825.952 112.015 816.905 102.968 816.905 91.9163Z" fill="#000000" fill-rule="nonzero" opacity="1" stroke="none"/>
<path d="M837.004 82.9775C832.074 82.9775 828.065 86.9864 828.011 91.9163C828.011 96.8462 832.019 100.855 836.949 100.909C841.879 100.909 845.942 96.9004 845.942 91.9705C845.942 86.9864 841.933 82.9775 837.004 82.9775Z" fill="#000000" fill-rule="nonzero" opacity="1" stroke="none"/>
<path d="M837.004 59.9532C838.52 59.9532 839.712 58.7614 839.712 57.2445C839.712 55.7276 838.52 54.5358 837.004 54.5358C835.487 54.5358 834.295 55.7276 834.295 57.2445C834.241 58.7072 835.487 59.8991 837.004 59.9532Z" fill="#000000" fill-rule="nonzero" opacity="1" stroke="none"/>
<path d="M837.004 129.405C838.52 129.405 839.712 128.213 839.712 126.696C839.712 125.18 838.52 123.988 837.004 123.988C835.487 123.988 834.295 125.18 834.295 126.696C834.241 128.159 835.487 129.405 837.004 129.405Z" fill="#000000" fill-rule="nonzero" opacity="1" stroke="none"/>
<path d="M874.438 91.9163C874.438 90.3994 873.246 89.2076 871.73 89.2076C870.213 89.2076 869.021 90.3994 869.021 91.9163C869.021 93.4332 870.213 94.625 871.73 94.625C873.192 94.6792 874.438 93.4332 874.438 91.9163Z" fill="#000000" fill-rule="nonzero" opacity="1" stroke="none"/>
<path d="M799.515 91.9163C799.515 93.4332 800.707 94.625 802.223 94.625C803.74 94.625 804.932 93.4332 804.932 91.9163C804.932 90.3994 803.74 89.2076 802.223 89.2076C800.761 89.2076 799.515 90.4536 799.515 91.9163Z" fill="#000000" fill-rule="nonzero" opacity="1" stroke="none"/>
<path d="M863.441 69.3255C864.524 68.242 864.524 66.5626 863.441 65.4791C862.357 64.3956 860.678 64.3956 859.594 65.4791C858.511 66.5626 858.511 68.242 859.594 69.3255C860.678 70.3548 862.411 70.3548 863.441 69.3255Z" fill="#000000" fill-rule="nonzero" opacity="1" stroke="none"/>
<path d="M810.512 114.561C809.429 115.645 809.429 117.324 810.512 118.408C811.596 119.491 813.275 119.491 814.359 118.408C815.442 117.324 815.442 115.645 814.359 114.561C813.275 113.532 811.596 113.532 810.512 114.561Z" fill="#000000" fill-rule="nonzero" opacity="1" stroke="none"/>
<path d="M859.594 118.408C860.678 119.491 862.357 119.491 863.441 118.408C864.524 117.324 864.524 115.645 863.441 114.561C862.357 113.478 860.678 113.478 859.594 114.561C858.565 115.645 858.565 117.324 859.594 118.408Z" fill="#000000" fill-rule="nonzero" opacity="1" stroke="none"/>
<path d="M814.359 65.4791C813.275 64.3956 811.596 64.3956 810.512 65.4791C809.429 66.5626 809.429 68.242 810.512 69.3255C811.596 70.409 813.275 70.409 814.359 69.3255C815.388 68.242 815.442 66.5084 814.359 65.4791Z" fill="#000000" fill-rule="nonzero" opacity="1" stroke="none"/>
<path d="M852.335 60.6575C852.877 59.249 852.227 57.6779 850.818 57.1362C849.41 56.5944 847.838 57.2445 847.297 58.6531C846.755 60.0616 847.405 61.6327 848.814 62.1744C850.168 62.7162 851.793 62.0661 852.335 60.6575Z" fill="#000000" fill-rule="nonzero" opacity="1" stroke="none"/>
<path d="M821.618 123.229C821.076 124.638 821.726 126.209 823.135 126.751C824.543 127.292 826.114 126.642 826.656 125.234C827.198 123.825 826.548 122.254 825.139 121.712C823.785 121.116 822.214 121.821 821.618 123.229Z" fill="#000000" fill-rule="nonzero" opacity="1" stroke="none"/>
<path d="M868.262 107.302C869.671 107.844 871.242 107.194 871.784 105.785C872.325 104.376 871.675 102.805 870.267 102.264C868.858 101.722 867.287 102.372 866.745 103.781C866.204 105.135 866.854 106.706 868.262 107.302Z" fill="#000000" fill-rule="nonzero" opacity="1" stroke="none"/>
<path d="M803.686 81.6231C805.095 82.1649 806.666 81.5148 807.207 80.1062C807.749 78.6977 807.099 77.1266 805.691 76.5849C804.282 76.0431 802.711 76.6932 802.169 78.1018C801.627 79.5103 802.278 81.0814 803.686 81.6231Z" fill="#000000" fill-rule="nonzero" opacity="1" stroke="none"/>
<path d="M869.942 80.7022C871.35 80.1062 871.946 78.5352 871.35 77.1266C870.754 75.7723 869.183 75.1222 867.775 75.7181C866.42 76.314 865.77 77.8851 866.366 79.2936C866.962 80.648 868.587 81.2439 869.942 80.7022Z" fill="#000000" fill-rule="nonzero" opacity="1" stroke="none"/>
<path d="M806.178 108.223C807.587 107.627 808.183 106.056 807.587 104.647C806.991 103.293 805.42 102.643 804.011 103.239C802.657 103.835 802.007 105.406 802.603 106.814C803.199 108.169 804.77 108.819 806.178 108.223Z" fill="#000000" fill-rule="nonzero" opacity="1" stroke="none"/>
<path d="M849.68 121.333C848.326 121.929 847.676 123.5 848.272 124.909C848.868 126.317 850.439 126.913 851.847 126.317C853.202 125.721 853.852 124.15 853.256 122.742C852.66 121.387 851.035 120.737 849.68 121.333Z" fill="#000000" fill-rule="nonzero" opacity="1" stroke="none"/>
<path d="M822.16 57.5696C820.805 58.1655 820.155 59.7365 820.751 61.1451C821.347 62.5536 822.918 63.1496 824.327 62.5536C825.681 61.9577 826.331 60.3866 825.735 58.9781C825.139 57.5696 823.514 56.9736 822.16 57.5696Z" fill="#000000" fill-rule="nonzero" opacity="1" stroke="none"/>
</g>
</g>
<path clip-path="url(#TextBounds_2)" d="M1013.15 163.37L984.663 163.37L951.338 115.689L940.352 126.895L940.352 163.37L917.866 163.37L917.866 55.7038L940.352 55.7038L940.352 99.5027L981.514 55.7038L1010.59 55.7038L966.646 99.7956L1013.15 163.37Z" fill="#ff0000" opacity="1" stroke="none"/>
</g>
</svg>
